<svg xmlns="http://www.w3.org/2000/svg" width="33.266" height="30.445" viewBox="0 0 33.266 30.445"><defs><style>.a{opacity:0.65;}</style></defs><g class="a"><g transform="translate(22.191 22.15)"><g transform="translate(0 0)"><path d="M345.695,362.612a4.148,4.148,0,1,0,4.148,4.148A4.153,4.153,0,0,0,345.695,362.612Zm0,5.807a1.659,1.659,0,1,1,1.659-1.659A1.661,1.661,0,0,1,345.695,368.419Z" transform="translate(-341.547 -362.612)"/></g></g><g transform="translate(0 0)"><g transform="translate(0 0)"><path d="M33,27.823a1.243,1.243,0,0,0-.98-.477H7.681L6.561,22.66a1.245,1.245,0,0,0-1.21-.955H1.244a1.244,1.244,0,1,0,0,2.489H4.369L8.413,41.115a1.244,1.244,0,0,0,1.21.955H28.994a1.244,1.244,0,0,0,1.208-.945L33.23,28.889A1.246,1.246,0,0,0,33,27.823ZM28.02,39.582H10.605L8.276,29.835H30.432Z" transform="translate(0 -21.705)"/></g></g><g transform="translate(7.134 22.15)"><g transform="translate(0 0)"><path d="M113.954,362.612a4.148,4.148,0,1,0,4.148,4.148A4.153,4.153,0,0,0,113.954,362.612Zm0,5.807a1.659,1.659,0,1,1,1.659-1.659A1.661,1.661,0,0,1,113.954,368.419Z" transform="translate(-109.806 -362.612)"/></g></g></g></svg>